<svg xmlns="http://www.w3.org/2000/svg" xmlns:xlink="http://www.w3.org/1999/xlink" width="91.51" height="30.37" viewBox="0 0 91.51 30.37"><defs><linearGradient id="Gradient_bez_nazwy_138" y1="6.05" x2="15.55" y2="6.05" gradientUnits="userSpaceOnUse"><stop offset="0" stop-color="#fd4e63"/><stop offset="1" stop-color="#fc8d57"/></linearGradient><linearGradient id="Gradient_bez_nazwy_138-2" x1="8.8" y1="21.67" x2="19.95" y2="21.67" xlink:href="#Gradient_bez_nazwy_138"/><linearGradient id="Gradient_bez_nazwy_138-3" x1="12.76" y1="15.43" x2="15.36" y2="15.43" xlink:href="#Gradient_bez_nazwy_138"/><linearGradient id="Gradient_bez_nazwy_138-4" x1="0.84" y1="18.83" x2="17.04" y2="18.83" xlink:href="#Gradient_bez_nazwy_138"/></defs><title>Zasób 4</title><g id="Warstwa_2" data-name="Warstwa 2"><g id="Warstwa_1-2" data-name="Warstwa 1"><text transform="translate(28.25 21.03)" font-size="15.41" fill="#131313" font-family="Poppins-Bold, Poppins" font-weight="700" letter-spacing="0.05em">Canute</text><path d="M2.12,10.2a.25.25,0,0,0,0,.07,5.21,5.21,0,0,0,0,1.71,19.23,19.23,0,0,0,7.55-.64A19,19,0,0,0,15.55,8.4a2,2,0,0,0-.19-.22A9.68,9.68,0,0,0,10,5.44C7.79,3.93,7.49,2.32,7.38.1a.1.1,0,0,0-.19,0C5.59,2.53,5.55,4.42,6.1,5.81c-.32.11-.64.23-.95.37a5.27,5.27,0,0,0-1,.58C2.3,5.17,2,3.44,1.88,1.15a.14.14,0,0,0-.26-.07C-1.38,5.79.38,8.69,2.12,10.2Z" fill="url(#Gradient_bez_nazwy_138)"/><path d="M18.88,19.55c-1.15-1.41-3.22-1.93-3.43-1.62s1,1.09.71,1.58-1.32.5-1.94,0-.27-1.2-1-2.17c-.18-.25-.69-1-1.36-1-1.21-.06-3.52,2.26-3,3.51.3.74,2.07.92,2.79,1.12,5.22,1.41,5.08,6.33,6.6,6S20.88,22,18.88,19.55Z" fill="url(#Gradient_bez_nazwy_138-2)"/><path d="M12.76,15.43a1.3,1.3,0,1,0,1.3-1.3A1.3,1.3,0,0,0,12.76,15.43Z" fill="url(#Gradient_bez_nazwy_138-3)"/><path d="M7,20.45c-.18-.57.07-1.08.55-2.12.21-.45,1.49-3.72,4.28-4.78,3.24-1.23,4.4,2.26,5,.84a7.15,7.15,0,0,0-.58-5,20,20,0,0,1-6.3,3.11,20.13,20.13,0,0,1-5.68.82c-.7,0-1.35-.05-2-.11a10,10,0,0,1,.53,4.46C2.44,20,.44,20.79.91,22s3.25.23,6.69,1.28c5.07,1.55,7,5.56,7.75,5,.57-.44-.08-2.88-1.78-4.45C11.06,21.44,7.57,22.22,7,20.45Z" fill="url(#Gradient_bez_nazwy_138-4)"/></g></g></svg>