<svg xmlns="http://www.w3.org/2000/svg" xmlns:xlink="http://www.w3.org/1999/xlink" width="30.58" height="30.58" viewBox="0 0 30.58 30.58"><defs><linearGradient id="Gradient_bez_nazwy_138" x1="5.42" y1="6.71" x2="20.97" y2="6.71" gradientUnits="userSpaceOnUse"><stop offset="0" stop-color="#fd4e63"/><stop offset="1" stop-color="#fc8d57"/></linearGradient><linearGradient id="Gradient_bez_nazwy_138-2" x1="14.22" y1="22.34" x2="25.37" y2="22.34" xlink:href="#Gradient_bez_nazwy_138"/><linearGradient id="Gradient_bez_nazwy_138-3" x1="18.18" y1="16.09" x2="20.78" y2="16.09" xlink:href="#Gradient_bez_nazwy_138"/><linearGradient id="Gradient_bez_nazwy_138-4" x1="6.26" y1="19.49" x2="22.46" y2="19.49" xlink:href="#Gradient_bez_nazwy_138"/></defs><title>Zasób 3</title><g id="Warstwa_2" data-name="Warstwa 2"><g id="Warstwa_1-2" data-name="Warstwa 1"><path d="M7.54,10.86a.25.25,0,0,0,0,.07,5.83,5.83,0,0,0,0,1.71A19.23,19.23,0,0,0,15,12,19,19,0,0,0,21,9.06a1.9,1.9,0,0,0-.19-.21A9.63,9.63,0,0,0,15.46,6.1C13.21,4.59,12.91,3,12.8.76a.1.1,0,0,0-.19-.05C11,3.19,11,5.08,11.52,6.47c-.32.11-.63.23-.95.37a4.86,4.86,0,0,0-1,.59c-1.9-1.6-2.2-3.33-2.31-5.62a.14.14,0,0,0-.26-.07C4,6.45,5.8,9.35,7.54,10.86Z" fill="url(#Gradient_bez_nazwy_138)"/><path d="M24.31,20.21c-1.15-1.41-3.23-1.93-3.44-1.62s1,1.09.71,1.58-1.32.5-1.94,0-.27-1.2-1-2.16c-.18-.26-.69-1-1.36-1-1.21-.06-3.52,2.26-3,3.51.3.74,2.07.92,2.8,1.12,5.21,1.41,5.07,6.33,6.59,6S26.31,22.66,24.31,20.21Z" fill="url(#Gradient_bez_nazwy_138-2)"/><path d="M18.18,16.09a1.3,1.3,0,1,0,1.3-1.3A1.3,1.3,0,0,0,18.18,16.09Z" fill="url(#Gradient_bez_nazwy_138-3)"/><path d="M12.42,21.11c-.19-.56.06-1.08.54-2.12.22-.45,1.49-3.72,4.28-4.78,3.25-1.23,4.41,2.26,5,.84a7.15,7.15,0,0,0-.58-5,20.07,20.07,0,0,1-6.29,3.11A20.24,20.24,0,0,1,9.68,14c-.7,0-1.35-.05-2-.11a9.87,9.87,0,0,1,.53,4.46c-.37,2.38-2.38,3.13-1.9,4.32s3.24.23,6.68,1.28c5.07,1.55,7,5.56,7.75,5,.57-.45-.08-2.89-1.78-4.46C16.48,22.1,13,22.88,12.42,21.11Z" fill="url(#Gradient_bez_nazwy_138-4)"/><rect width="30.58" height="30.58" fill="none"/></g></g></svg>